<?xml version="1.0" encoding="UTF-8"?>
<svg id="Layer_1" data-name="Layer 1" xmlns="http://www.w3.org/2000/svg" viewBox="0 0 1057.6 373.95">
  <defs>
    <style>
      .cls-1, .cls-2 {
        fill: #5cb7bc;
      }

      .cls-3 {
        fill: #f0f1f6;
      }

      .cls-4 {
        fill: #fff;
      }

      .cls-5 {
        fill: #00446d;
      }

      .cls-2 {
        stroke: #00446d;
        stroke-miterlimit: 10;
        stroke-width: 17.17px;
      }
    </style>
  </defs>
  <g>
    <circle class="cls-2" cx="186.98" cy="186.98" r="178.39"/>
    <g>
      <path class="cls-4" d="M288.25,228.71c-1.49-16.72-8.86-32.67-20.72-44.88-9.66-10.14-23.44-19.68-40.97-28.36-3.63-1.85-7.52-3.61-11.63-5.47-19.07-8.62-38.78-17.54-40.08-37.04-.35-7.8,2.07-14.48,7.2-19.85,6.32-6.62,16.45-10.58,27.1-10.58,7.98,0,15.46,2.14,21.62,6.19l.14.09.14.08c.98.57,2.11,1.36,3.31,2.2,3.76,2.64,8.44,5.93,13.98,5.93,1.45,0,2.88-.23,4.25-.68l.12-.04c5.39-1.91,8.65-7.63,7.75-13.62-.73-5.36-4.27-10.63-10.51-15.67l-.16-.13-.08-.06c-13.3-10.02-33.01-15.54-55.51-15.54-17.79,0-35.72,3.67-49.14,10.05-21.42,10.01-36.85,28.81-42.34,51.58-5.24,21.75-.43,44.31,13.21,61.9,14.73,19.81,36.62,28.56,57.78,37.03,7.87,3.15,16.02,6.41,23.49,10.16,8.85,4.37,16.72,10.79,21.58,17.61,5.58,7.83,7.23,15.85,4.89,23.85-2.53,7.95-11.43,26.29-39.45,26.29-10.97,0-22.4-3.02-32.19-8.49l-.14-.08c-4.37-2.28-8.82-6.08-13.13-9.76l-1.11-.95c-.37-.3-.75-.61-1.12-.92-3.02-2.49-6.45-5.32-11.07-6.51-1.28-.33-2.6-.5-3.93-.5-4.58,0-9.04,1.96-12.22,5.37-3.02,3.25-4.53,7.4-4.25,11.71.66,15.11,20.87,26.06,38.46,33.93,13.61,5.95,29.21,9.09,45.12,9.09,32,0,62.15-12.32,80.64-32.95,14.96-16.69,21.52-37.78,18.99-61.01Z"/>
      <g>
        <path class="cls-5" d="M246.37,71.42c3.73,3.01,7.84,7.32,8.48,12.08.46,3.03-1.04,6.42-4.03,7.48-6.08,2-11.93-4.09-16.93-6.98-25.02-16.44-66.21-3.47-64.68,29.29,1.8,27.68,34.31,36.81,54.83,47.25,14.22,7.04,28.83,16.1,39.4,27.2,10.75,11.06,17.79,25.64,19.19,41.53,7.9,72.06-78.44,104.65-136.84,79.12-11.06-4.95-34.57-15.94-35.08-29.05-.5-7.06,6.67-12.5,13.32-10.79,3.88.99,6.91,3.81,10.03,6.34,4.8,4.09,9.87,8.55,15.19,11.33,27.67,15.48,68.91,13.34,79.82-21.09,6.27-21.28-11.67-39.45-29.39-48.19-27.12-13.65-60.08-19.69-79.26-45.54-27.37-35.24-13.21-86.12,27.02-104.92,27.9-13.26,74.34-13.58,98.84,4.89l.08.07Z"/>
        <path class="cls-1" d="M206.13,72.73c-2.24-.11-23.4-.84-37.01,16.14-.78.97-12.52,16.07-8.74,33.91,3.63,17.18,18.87,23.76,41.91,40.32,30.55,21.96,60.23,43.29,63.03,67.55,1.03,8.95-.22,30.2-39.24,59.99,21.97-24.41,24.53-42.03,22.61-53.75-8-48.71-102.75-53.23-110.54-105.2-2.41-16.07,3.86-34.71,16.48-46.44,19.6-18.22,47.56-13.27,51.51-12.51Z"/>
        <path class="cls-1" d="M128.08,99.37c-11.69,22.64-9.24,49.77,6.18,68.89,20.55,25.49,52.94,22.85,55.38,22.61-5.36-.86-31.07-5.58-48.77-29.43-20.21-27.23-13.81-57.62-12.79-62.07Z"/>
        <path class="cls-1" d="M194.64,302.74c9.05,4.57,16.63,5.01,21.12,4.8,19.28-.89,37.05-16.28,45.82-38.87-3.97,5.99-14.35,19.9-33.47,28.09-13.94,5.97-26.48,6.32-33.47,5.98Z"/>
        <path class="cls-3" d="M188.59,73.51c-4.22,1.68-14.63,6.49-22.29,17.81-2.27,3.35-11.46,16.77-7.99,30.99,5.45,22.34,38.4,36.7,38.29,36.84,0,0,0,0,0,0-7.72-.46-22.86-2.54-36.8-13.33-4.73-3.66-10.81-8.37-14.32-16.81-5.6-13.47-1.93-29.92,7.57-41.01,13.39-15.64,33.24-14.65,35.55-14.5Z"/>
        <path class="cls-3" d="M242.82,272.83c16.22-13.49,22.68-32.21,16.8-45.75-1.24-2.87-4.17-8.11-11.36-12.64,2.21,5.06,5.05,13.35,5.12,23.83.11,17.13-7.22,29.57-10.56,34.55Z"/>
      </g>
    </g>
  </g>
  <g>
    <path class="cls-1" d="M447.6,172.58c-2.4-2-5.32-3.73-8.75-5.21-3.44-1.48-7.35-2.7-11.75-3.66-3.12-.64-5.8-1.38-8.03-2.22-2.24-.84-4.02-1.8-5.33-2.88-1.32-1.08-2.3-2.32-2.94-3.72-.64-1.4-.96-2.94-.96-4.61,0-2.32.66-4.34,1.98-6.05,1.32-1.72,3.14-3.06,5.45-4.02,2.32-.96,5.03-1.44,8.15-1.44,2.72,0,5.27.46,7.67,1.38,2.4.92,4.59,2.28,6.59,4.08,2,1.8,3.79,4.02,5.39,6.65l9.11-8.99c-1.84-3.2-4.16-5.89-6.95-8.09-2.8-2.2-5.99-3.86-9.59-4.97-3.6-1.12-7.55-1.68-11.87-1.68-4.08,0-7.87.58-11.39,1.74-3.52,1.16-6.57,2.8-9.17,4.92-2.6,2.12-4.64,4.61-6.11,7.49-1.48,2.88-2.22,5.99-2.22,9.35s.52,6.53,1.56,9.29c1.04,2.76,2.64,5.21,4.79,7.37,2.16,2.16,4.83,3.96,8.03,5.39,3.2,1.44,6.95,2.6,11.27,3.48,2.72.48,5.11,1.06,7.19,1.74,2.08.68,3.9,1.46,5.45,2.34,1.56.88,2.84,1.84,3.84,2.88,1,1.04,1.74,2.2,2.22,3.48.48,1.28.72,2.64.72,4.08,0,2.16-.72,4.08-2.16,5.75-1.44,1.68-3.4,3-5.87,3.95-2.48.96-5.24,1.44-8.27,1.44-4.96,0-9.23-1.08-12.83-3.24-3.6-2.16-7.35-6.03-11.27-11.63l-8.87,10.19c2.48,3.6,5.29,6.61,8.45,9.05,3.16,2.44,6.67,4.26,10.55,5.45,3.88,1.2,8.09,1.8,12.65,1.8,6.31,0,11.75-1.06,16.3-3.18,4.55-2.12,8.07-5.13,10.55-9.05,2.48-3.92,3.72-8.55,3.72-13.91,0-2.88-.62-5.55-1.86-8.03-1.24-2.48-3.06-4.71-5.45-6.71Z"/>
    <path class="cls-1" d="M518.08,152.45c-4.4-2.8-9.43-4.19-15.1-4.19-3.44,0-6.77.7-10.01,2.1-3.24,1.4-5.97,3.2-8.21,5.39-.84.83-1.56,1.67-2.16,2.53v-8.94h-12.47v89.3h12.47v-34.61c.41.47.84.94,1.32,1.4,2.4,2.32,5.31,4.22,8.75,5.69,3.43,1.48,6.99,2.22,10.67,2.22,5.51,0,10.47-1.42,14.86-4.26,4.39-2.84,7.85-6.71,10.37-11.63,2.52-4.91,3.78-10.49,3.78-16.72s-1.28-11.9-3.84-16.78c-2.56-4.87-6.03-8.71-10.43-11.51ZM517.96,191.64c-1.68,3.2-3.96,5.71-6.83,7.55-2.88,1.84-6.15,2.76-9.83,2.76s-7.07-.92-9.95-2.76c-2.88-1.84-5.15-4.35-6.83-7.55-1.68-3.19-2.52-6.83-2.52-10.91s.84-7.71,2.52-10.91c1.68-3.2,3.96-5.69,6.83-7.49,2.88-1.8,6.19-2.7,9.95-2.7s7.07.92,9.95,2.76c2.88,1.84,5.13,4.34,6.77,7.49,1.64,3.16,2.46,6.77,2.46,10.85s-.84,7.71-2.52,10.91Z"/>
    <rect class="cls-1" x="546.01" y="123.56" width="12.35" height="88.7"/>
    <path class="cls-1" d="M620.81,158.94c-1.27-2.04-2.84-3.87-4.73-5.47-2.04-1.72-4.42-3.06-7.13-4.02-2.72-.96-5.71-1.44-8.99-1.44-5.51,0-10.49,1.4-14.92,4.2-4.43,2.8-7.95,6.65-10.55,11.57-2.6,4.91-3.9,10.53-3.9,16.84s1.28,11.83,3.84,16.78c2.56,4.96,5.97,8.87,10.25,11.75,4.27,2.88,9.01,4.31,14.2,4.31,3.04,0,5.93-.48,8.69-1.44,2.76-.96,5.27-2.24,7.55-3.84,2.28-1.6,4.15-3.42,5.63-5.45.02-.03.04-.06.06-.09v9.62h12.47v-62.93h-12.47v9.61ZM618.83,191.7c-1.64,3.24-3.9,5.77-6.77,7.61-2.88,1.84-6.19,2.76-9.95,2.76s-6.93-.92-9.77-2.76c-2.84-1.84-5.08-4.37-6.71-7.61-1.64-3.24-2.46-6.93-2.46-11.09s.82-7.71,2.46-10.91c1.64-3.2,3.87-5.71,6.71-7.55,2.84-1.84,6.09-2.76,9.77-2.76s7.07.92,9.95,2.76c2.88,1.84,5.13,4.36,6.77,7.55,1.64,3.2,2.46,6.83,2.46,10.91s-.82,7.85-2.46,11.09Z"/>
    <path class="cls-1" d="M689.97,182.77c-1.52-1.6-3.58-3.02-6.17-4.26-2.6-1.24-5.89-2.38-9.89-3.42-2.72-.64-4.96-1.32-6.71-2.04-1.76-.72-3.08-1.4-3.96-2.04-.8-.64-1.42-1.42-1.86-2.34-.44-.92-.7-1.9-.78-2.94,0-1.2.24-2.28.72-3.24.48-.96,1.18-1.76,2.1-2.4.92-.64,2.06-1.12,3.42-1.44,1.36-.32,2.88-.48,4.55-.48,1.52,0,3.2.32,5.03.96,1.84.64,3.66,1.54,5.45,2.7,1.8,1.16,3.46,2.5,4.97,4.02l7.07-7.79c-1.68-2.08-3.76-3.87-6.23-5.39-2.48-1.52-5.17-2.68-8.09-3.47-2.92-.8-5.85-1.2-8.81-1.2-3.12,0-6.05.44-8.81,1.32-2.76.88-5.15,2.14-7.19,3.78-2.04,1.64-3.64,3.56-4.8,5.75-1.16,2.2-1.74,4.62-1.74,7.25,0,2.16.28,4.13.84,5.93.56,1.8,1.44,3.46,2.64,4.97,1.6,1.92,3.88,3.64,6.83,5.15,2.96,1.52,6.75,2.88,11.39,4.08,2.72.72,4.93,1.42,6.65,2.1,1.72.68,2.98,1.3,3.78,1.86,1.52,1.28,2.28,2.96,2.28,5.04,0,1.2-.24,2.3-.72,3.3-.48,1-1.18,1.86-2.1,2.58-.92.72-2,1.26-3.24,1.62-1.24.36-2.58.54-4.02.54-3.6,0-6.81-.62-9.65-1.86-2.84-1.24-5.45-3.26-7.85-6.05l-8.39,7.19c2.8,3.6,6.31,6.32,10.55,8.15,4.23,1.84,8.99,2.76,14.26,2.76,4.23,0,8.07-.8,11.51-2.4,3.43-1.6,6.17-3.82,8.21-6.65,2.04-2.84,3.06-6.05,3.06-9.65,0-2.48-.32-4.72-.96-6.71-.64-2-1.76-3.76-3.36-5.27Z"/>
    <path class="cls-1" d="M752.9,150.83c-3.2-1.88-7.19-2.82-11.99-2.82-3.36,0-6.63.74-9.83,2.22-3.2,1.48-5.95,3.4-8.27,5.75-.98.99-1.81,2.03-2.52,3.1v-35.52h-12.35v88.7h12.35v-38.12c0-2.08.42-4.02,1.26-5.81.84-1.8,2-3.38,3.48-4.74,1.48-1.36,3.22-2.42,5.21-3.18,2-.76,4.19-1.14,6.59-1.14,2.96-.16,5.43.3,7.43,1.38,2,1.08,3.48,2.8,4.44,5.15.96,2.36,1.44,5.33,1.44,8.93v37.52h12.35v-38.36c0-5.83-.8-10.67-2.4-14.5-1.6-3.84-4-6.69-7.19-8.57Z"/>
    <path class="cls-1" d="M871.21,169.53c-1.83-1.33-3.87-2.4-6.11-3.2,2.74-1.26,5-3,6.77-5.25,2.52-3.2,3.78-7.07,3.78-11.63s-.94-8.41-2.82-11.57c-1.88-3.15-4.66-5.53-8.33-7.13-3.68-1.6-8.19-2.4-13.55-2.4h-35v83.91h36.2c4.39,0,8.31-.54,11.75-1.62,3.44-1.08,6.37-2.66,8.81-4.74,2.44-2.08,4.27-4.66,5.51-7.73s1.86-6.61,1.86-10.61-.78-7.39-2.34-10.43c-1.56-3.04-3.74-5.57-6.53-7.61ZM828.9,140.82h19.9c4.47,0,7.91.96,10.31,2.88,2.4,1.92,3.6,4.67,3.6,8.27,0,2.16-.54,4.08-1.62,5.75-1.08,1.68-2.56,3-4.44,3.95-1.88.96-4.02,1.44-6.41,1.44h-21.34v-22.3ZM865.04,194.1c-1.24,1.88-3,3.3-5.27,4.26-2.28.96-5.06,1.44-8.33,1.44h-22.54v-24.21h21.93c3.28,0,6.11.46,8.51,1.38,2.4.92,4.26,2.26,5.57,4.02,1.32,1.76,1.98,3.88,1.98,6.35,0,2.64-.62,4.9-1.86,6.77Z"/>
    <path class="cls-1" d="M926.11,148.01c-2.96,0-5.81.72-8.57,2.16-2.76,1.44-5.2,3.4-7.31,5.87-1.35,1.58-2.45,3.28-3.3,5.09v-11.8h-12.47v62.93h12.47v-34.76c0-2.32.44-4.45,1.32-6.41.88-1.96,2.06-3.67,3.54-5.15s3.19-2.64,5.15-3.47c1.96-.84,4.02-1.26,6.17-1.26,1.12,0,2.26.14,3.42.42,1.16.28,2.22.62,3.18,1.02l3.24-13.42c-.72-.32-1.7-.6-2.94-.84-1.24-.24-2.54-.36-3.89-.36Z"/>
    <path class="cls-1" d="M984.78,152.27c-4.83-2.83-10.29-4.26-16.36-4.26s-11.65,1.42-16.48,4.26c-4.84,2.84-8.65,6.71-11.45,11.63-2.8,4.91-4.19,10.53-4.19,16.84s1.4,11.93,4.19,16.84c2.8,4.91,6.61,8.79,11.45,11.63,4.83,2.84,10.33,4.26,16.48,4.26s11.53-1.42,16.36-4.26c4.83-2.83,8.65-6.71,11.45-11.63,2.8-4.91,4.19-10.53,4.19-16.84s-1.4-11.93-4.19-16.84c-2.8-4.91-6.61-8.79-11.45-11.63ZM985.44,191.7c-1.68,3.24-4,5.79-6.95,7.67-2.96,1.88-6.31,2.82-10.07,2.82s-7.13-.94-10.13-2.82c-3-1.88-5.33-4.43-7.01-7.67-1.68-3.24-2.48-6.89-2.4-10.97-.08-4.08.72-7.73,2.4-10.97,1.68-3.24,4.02-5.79,7.01-7.67,3-1.88,6.37-2.82,10.13-2.82s7.11.92,10.07,2.76c2.96,1.84,5.27,4.37,6.95,7.61,1.68,3.24,2.48,6.93,2.4,11.09.08,4.08-.72,7.73-2.4,10.97Z"/>
    <path class="cls-1" d="M1056.64,188.05c-.64-2-1.76-3.76-3.36-5.27-1.52-1.6-3.58-3.02-6.17-4.26-2.6-1.24-5.9-2.38-9.89-3.42-2.72-.64-4.96-1.32-6.71-2.04-1.76-.72-3.08-1.4-3.95-2.04-.8-.64-1.42-1.42-1.86-2.34-.44-.92-.7-1.9-.78-2.94,0-1.2.24-2.28.72-3.24.48-.96,1.18-1.76,2.1-2.4.92-.64,2.06-1.12,3.42-1.44,1.36-.32,2.88-.48,4.55-.48,1.52,0,3.2.32,5.04.96,1.84.64,3.66,1.54,5.45,2.7,1.8,1.16,3.46,2.5,4.97,4.02l7.07-7.79c-1.68-2.08-3.76-3.87-6.23-5.39-2.48-1.52-5.17-2.68-8.09-3.47-2.92-.8-5.85-1.2-8.81-1.2-3.12,0-6.05.44-8.81,1.32-2.76.88-5.15,2.14-7.19,3.78-2.04,1.64-3.64,3.56-4.8,5.75-1.16,2.2-1.74,4.62-1.74,7.25,0,2.16.28,4.13.84,5.93.56,1.8,1.44,3.46,2.64,4.97,1.6,1.92,3.88,3.64,6.83,5.15,2.96,1.52,6.75,2.88,11.39,4.08,2.72.72,4.93,1.42,6.65,2.1,1.72.68,2.98,1.3,3.78,1.86,1.52,1.28,2.28,2.96,2.28,5.04,0,1.2-.24,2.3-.72,3.3-.48,1-1.18,1.86-2.1,2.58-.92.72-2,1.26-3.24,1.62-1.24.36-2.58.54-4.02.54-3.6,0-6.81-.62-9.65-1.86-2.84-1.24-5.45-3.26-7.85-6.05l-8.39,7.19c2.8,3.6,6.31,6.32,10.55,8.15,4.23,1.84,8.99,2.76,14.26,2.76,4.23,0,8.07-.8,11.51-2.4,3.44-1.6,6.17-3.82,8.21-6.65,2.04-2.84,3.06-6.05,3.06-9.65,0-2.48-.32-4.72-.96-6.71Z"/>
  </g>
  <g>
    <path class="cls-1" d="M482.74,267.25c-.52,1.34-.95,2.52-1.31,3.53-.36,1.01-.67,1.98-.93,2.88-.02.08-.05.17-.07.25-.16-.52-.32-1.05-.5-1.59-.22-.7-.48-1.46-.77-2.27-.29-.81-.64-1.74-1.06-2.81l-7.52-19.52h-8.19l14.37,36.05h6.75l14.47-36.05h-8.14l-7.11,19.52Z"/>
    <polygon class="cls-1" points="510.81 268.69 525.13 268.69 525.13 262.1 510.81 262.1 510.81 254.53 527.6 254.53 527.6 247.73 503.24 247.73 503.24 283.78 527.96 283.78 527.96 276.98 510.81 276.98 510.81 268.69"/>
    <polygon class="cls-1" points="558.66 262.31 543.67 262.31 543.67 247.73 535.95 247.73 535.95 283.78 543.67 283.78 543.67 269.31 558.66 269.31 558.66 283.78 566.39 283.78 566.39 247.73 558.66 247.73 558.66 262.31"/>
    <polygon class="cls-1" points="574.83 254.37 580.86 254.37 580.86 277.14 574.83 277.14 574.83 283.78 594.61 283.78 594.61 277.14 588.58 277.14 588.58 254.37 594.61 254.37 594.61 247.73 574.83 247.73 574.83 254.37"/>
    <path class="cls-1" d="M610.94,257.54c.96-.98,2.09-1.74,3.37-2.29,1.29-.55,2.67-.82,4.15-.82,1.1,0,2.14.16,3.12.49.98.33,1.91.79,2.81,1.39.89.6,1.73,1.31,2.52,2.14l4.84-5.36c-1-1.24-2.19-2.3-3.58-3.19-1.39-.89-2.92-1.57-4.58-2.03-1.67-.46-3.36-.7-5.07-.7-2.64,0-5.1.46-7.37,1.39-2.27.93-4.24,2.22-5.92,3.89-1.68,1.67-2.99,3.62-3.91,5.87-.93,2.25-1.39,4.7-1.39,7.34s.45,5.21,1.34,7.49c.89,2.28,2.15,4.26,3.79,5.92,1.63,1.67,3.55,2.95,5.77,3.86s4.64,1.36,7.29,1.36c1.75,0,3.48-.21,5.2-.64,1.72-.43,3.27-1.02,4.66-1.78s2.51-1.6,3.37-2.52l-3.81-6.03c-.69.72-1.47,1.36-2.34,1.91-.88.55-1.83.98-2.86,1.29s-2.09.46-3.19.46c-1.68,0-3.22-.27-4.61-.8s-2.58-1.29-3.58-2.27c-1-.98-1.77-2.16-2.32-3.55-.55-1.39-.82-2.94-.82-4.66s.28-3.22.85-4.61c.57-1.39,1.33-2.58,2.29-3.55Z"/>
    <polygon class="cls-1" points="645.5 247.73 637.77 247.73 637.77 283.78 661.83 283.78 661.83 276.83 645.5 276.83 645.5 247.73"/>
    <polygon class="cls-1" points="676.56 268.69 690.88 268.69 690.88 262.1 676.56 262.1 676.56 254.53 693.35 254.53 693.35 247.73 668.99 247.73 668.99 283.78 693.71 283.78 693.71 276.98 676.56 276.98 676.56 268.69"/>
    <path class="cls-1" d="M745.03,252.75c-1.56-1.6-3.42-2.83-5.56-3.71-2.15-.88-4.54-1.31-7.18-1.31h-14.78v36.05h14.78c2.64,0,5.05-.44,7.21-1.31,2.16-.88,4.02-2.11,5.56-3.71,1.55-1.6,2.73-3.5,3.55-5.72s1.24-4.64,1.24-7.29-.41-5.12-1.24-7.31-2.02-4.1-3.58-5.69ZM741.35,270.34c-.45,1.37-1.11,2.53-1.98,3.48-.88.94-1.93,1.68-3.17,2.21-1.24.53-2.63.8-4.17.8h-6.8v-22.15h6.8c1.55,0,2.94.27,4.17.8s2.29,1.28,3.17,2.24c.88.96,1.54,2.12,1.98,3.48.45,1.36.67,2.88.67,4.56s-.22,3.21-.67,4.58Z"/>
    <polygon class="cls-1" points="764.42 268.69 778.74 268.69 778.74 262.1 764.42 262.1 764.42 254.53 781.22 254.53 781.22 247.73 756.85 247.73 756.85 283.78 781.58 283.78 781.58 276.98 764.42 276.98 764.42 268.69"/>
    <polygon class="cls-1" points="815.62 247.73 786.57 247.73 786.57 254.68 797.08 254.68 797.08 283.78 804.8 283.78 804.8 254.68 815.62 254.68 815.62 247.73"/>
    <path class="cls-1" d="M829.27,247.73l-14.16,36.05h7.67l2.85-7.57h13.83l2.83,7.57h7.93l-14.06-36.05h-6.9ZM827.97,270.03l2.08-5.51c.27-.79.57-1.6.88-2.42.31-.82.6-1.67.88-2.55.27-.87.54-1.72.79-2.56.25.81.52,1.65.8,2.53.31.96.61,1.87.9,2.73.29.86.54,1.56.75,2.11l2.12,5.67h-9.19Z"/>
    <polygon class="cls-1" points="854.35 254.37 860.38 254.37 860.38 277.14 854.35 277.14 854.35 283.78 874.13 283.78 874.13 277.14 868.11 277.14 868.11 254.37 874.13 254.37 874.13 247.73 854.35 247.73 854.35 254.37"/>
    <polygon class="cls-1" points="890.3 247.73 882.58 247.73 882.58 283.78 906.63 283.78 906.63 276.83 890.3 276.83 890.3 247.73"/>
    <polygon class="cls-1" points="921.36 268.69 935.68 268.69 935.68 262.1 921.36 262.1 921.36 254.53 938.15 254.53 938.15 247.73 913.79 247.73 913.79 283.78 938.51 283.78 938.51 276.98 921.36 276.98 921.36 268.69"/>
    <path class="cls-1" d="M968.54,269.31c1.82-1.03,3.25-2.43,4.3-4.2,1.05-1.77,1.57-3.73,1.57-5.9s-.52-4.15-1.57-5.87c-1.05-1.72-2.48-3.08-4.3-4.1-1.82-1.01-3.85-1.52-6.08-1.52h-15.97v36.05h7.47v-12.93h5.7l7.28,12.93,8.96.05-8.18-14.13c.27-.13.55-.24.82-.39ZM953.97,254.42h7.16c1.13,0,2.13.22,2.99.64.86.43,1.51,1.02,1.96,1.78.45.76.67,1.65.67,2.68,0,.96-.19,1.83-.57,2.6-.38.77-.92,1.37-1.62,1.8-.7.43-1.52.64-2.45.64h-8.14v-10.15Z"/>
    <path class="cls-1" d="M1007.17,268.77c-.58-1.18-1.42-2.21-2.5-3.09-1.08-.88-2.38-1.62-3.89-2.24-1.51-.62-3.21-1.11-5.1-1.49-1-.21-1.91-.45-2.73-.72-.82-.27-1.53-.59-2.11-.95-.58-.36-1.03-.78-1.34-1.26-.31-.48-.46-1.03-.46-1.65,0-.75.23-1.42.7-1.98s1.11-1,1.93-1.29,1.8-.44,2.94-.44c1.03,0,2.03.16,3.01.49.98.33,1.89.82,2.73,1.47.84.65,1.62,1.46,2.34,2.42l4.89-4.74c-.82-1.34-1.85-2.48-3.06-3.43-1.22-.94-2.65-1.66-4.3-2.14-1.65-.48-3.57-.72-5.77-.72-1.79,0-3.48.26-5.07.77-1.6.52-3.01,1.25-4.22,2.21-1.22.96-2.17,2.1-2.86,3.43-.69,1.32-1.03,2.76-1.03,4.3s.23,2.87.69,4.07c.46,1.2,1.18,2.28,2.14,3.22.96.94,2.16,1.73,3.61,2.37,1.44.64,3.12,1.18,5.05,1.62.89.14,1.72.32,2.47.54.76.22,1.44.48,2.06.77.62.29,1.15.62,1.6.98.45.36.79.77,1.03,1.24.24.46.36.97.36,1.52,0,.76-.24,1.4-.72,1.93-.48.53-1.14.95-1.98,1.26-.84.31-1.79.46-2.86.46-1.96,0-3.77-.42-5.43-1.26-1.67-.84-3.34-2.43-5.02-4.76l-4.84,5.51c1.13,1.51,2.41,2.8,3.84,3.86,1.43,1.06,3.06,1.87,4.89,2.42,1.84.55,3.87.82,6.1.82,2.75,0,5.15-.46,7.21-1.36,2.06-.91,3.67-2.22,4.84-3.94,1.17-1.72,1.75-3.79,1.75-6.23,0-1.48-.29-2.81-.88-3.99Z"/>
  </g>
</svg>