<?xml version="1.0" encoding="UTF-8"?>
<svg id="Layer_1" data-name="Layer 1" xmlns="http://www.w3.org/2000/svg" viewBox="0 0 435.62 435.62">
  <defs>
    <style>
      .cls-1, .cls-2 {
        fill: #5cb7bc;
      }

      .cls-3 {
        fill: #f0f1f6;
      }

      .cls-4 {
        fill: #fff;
      }

      .cls-5 {
        fill: #00446d;
      }

      .cls-2 {
        stroke: #00446d;
        stroke-miterlimit: 10;
        stroke-width: 20px;
      }
    </style>
  </defs>
  <circle class="cls-2" cx="217.81" cy="217.81" r="207.81"/>
  <g>
    <path class="cls-4" d="M335.79,266.42c-1.73-19.48-10.32-38.06-24.14-52.28-11.26-11.81-27.31-22.93-47.72-33.03-4.23-2.15-8.76-4.2-13.55-6.37-22.21-10.05-45.17-20.43-46.69-43.14-.41-9.09,2.41-16.87,8.38-23.13,7.36-7.71,19.16-12.32,31.56-12.32,9.3,0,18.01,2.49,25.18,7.21l.16.1.16.09c1.14.66,2.46,1.59,3.85,2.57,4.38,3.08,9.83,6.91,16.28,6.91,1.69,0,3.35-.27,4.95-.79l.14-.05c6.28-2.22,10.07-8.89,9.03-15.87-.85-6.24-4.98-12.39-12.25-18.26l-.19-.15-.09-.07c-15.49-11.68-38.46-18.11-64.66-18.11-20.73,0-41.61,4.27-57.25,11.7-24.95,11.66-42.93,33.57-49.33,60.09-6.11,25.34-.5,51.62,15.39,72.11,17.16,23.08,42.65,33.27,67.31,43.13,9.17,3.67,18.66,7.46,27.36,11.84,10.31,5.09,19.48,12.57,25.14,20.51,6.51,9.12,8.42,18.47,5.7,27.78-2.95,9.26-13.31,30.63-45.96,30.63-12.78,0-26.1-3.51-37.5-9.89l-.17-.09c-5.1-2.66-10.28-7.09-15.29-11.37l-1.3-1.1c-.44-.35-.87-.71-1.3-1.07-3.52-2.91-7.51-6.2-12.9-7.58-1.49-.38-3.03-.58-4.58-.58-5.34,0-10.53,2.28-14.23,6.26-3.52,3.78-5.28,8.62-4.95,13.64.77,17.6,24.32,30.36,44.81,39.53,15.85,6.93,34.03,10.59,52.56,10.59,37.28,0,72.39-14.35,93.94-38.38,17.42-19.44,25.07-44.01,22.12-71.07Z"/>
    <g>
      <path class="cls-5" d="M286.99,83.2c4.35,3.51,9.14,8.53,9.87,14.07.54,3.53-1.21,7.48-4.7,8.71-7.08,2.33-13.9-4.76-19.72-8.13-29.15-19.15-77.12-4.04-75.35,34.12,2.09,32.25,39.96,42.88,63.87,55.04,16.57,8.2,33.58,18.75,45.9,31.68,12.53,12.89,20.72,29.87,22.35,48.38,9.21,83.94-91.37,121.91-159.4,92.17-12.89-5.77-40.27-18.57-40.86-33.84-.58-8.22,7.77-14.56,15.52-12.57,4.52,1.16,8.05,4.44,11.69,7.38,5.59,4.76,11.5,9.96,17.69,13.2,32.24,18.04,80.28,15.54,92.99-24.57,7.3-24.79-13.59-45.95-34.24-56.14-31.6-15.9-69.99-22.94-92.33-53.04-31.88-41.05-15.39-100.32,31.48-122.23,32.5-15.44,86.6-15.82,115.14,5.69l.1.08Z"/>
      <path class="cls-1" d="M240.13,84.73c-2.61-.13-27.25-.98-43.11,18.8-.91,1.13-14.58,18.73-10.19,39.51,4.23,20.01,21.98,27.68,48.82,46.97,35.59,25.58,70.16,50.43,73.42,78.69,1.2,10.42-.25,35.18-45.72,69.88,25.6-28.44,28.58-48.96,26.34-62.61-9.32-56.75-119.69-62.01-128.76-122.55-2.81-18.72,4.5-40.44,19.19-54.1,22.84-21.23,55.41-15.46,60-14.57Z"/>
      <path class="cls-1" d="M149.2,115.76c-13.62,26.38-10.76,57.98,7.2,80.25,23.94,29.69,61.66,26.62,64.51,26.34-6.24-1.01-36.19-6.5-56.81-34.29-23.54-31.72-16.08-67.12-14.9-72.3Z"/>
      <path class="cls-1" d="M226.74,352.67c10.54,5.32,19.37,5.83,24.6,5.59,22.45-1.04,43.15-18.97,53.38-45.28-4.62,6.98-16.72,23.18-38.99,32.72-16.24,6.96-30.85,7.36-38.99,6.97Z"/>
      <path class="cls-3" d="M219.69,85.64c-4.92,1.96-17.04,7.56-25.97,20.75-2.64,3.9-13.35,19.53-9.31,36.1,6.35,26.03,44.73,42.76,44.61,42.92,0,0-.01,0-.01,0-8.99-.54-26.63-2.96-42.87-15.52-5.51-4.26-12.59-9.75-16.68-19.58-6.52-15.69-2.24-34.85,8.82-47.77,15.6-18.22,38.72-17.07,41.41-16.89Z"/>
      <path class="cls-3" d="M282.86,317.82c18.89-15.71,26.42-37.52,19.57-53.29-1.45-3.34-4.86-9.44-13.23-14.72,2.58,5.89,5.88,15.55,5.96,27.77.13,19.96-8.41,34.45-12.3,40.25Z"/>
    </g>
  </g>
</svg>